G75*
G70*
%OFA0B0*%
%FSLAX24Y24*%
%IPPOS*%
%LPD*%
%AMOC8*
5,1,8,0,0,1.08239X$1,22.5*
%
%ADD10C,0.0000*%
%ADD11C,0.0600*%
%ADD12C,0.0520*%
%ADD13OC8,0.0520*%
%ADD14OC8,0.0620*%
%ADD15C,0.0620*%
D10*
X000180Y000180D02*
X000180Y010176D01*
X019550Y010176D01*
X019550Y000180D01*
X000180Y000180D01*
D11*
X000880Y001680D02*
X001480Y001680D01*
X001480Y002680D02*
X000880Y002680D01*
X000880Y004680D02*
X001480Y004680D01*
X001480Y005680D02*
X000880Y005680D01*
X016180Y005380D02*
X016180Y005980D01*
X017180Y005980D02*
X017180Y005380D01*
X018180Y005380D02*
X018180Y005980D01*
X018180Y007380D02*
X018180Y007980D01*
X017180Y007980D02*
X017180Y007380D01*
X016180Y007380D02*
X016180Y007980D01*
X016180Y002980D02*
X016180Y002380D01*
X017180Y002380D02*
X017180Y002980D01*
X018180Y002980D02*
X018180Y002380D01*
D12*
X014940Y002680D02*
X014420Y002680D01*
X014420Y003680D02*
X014940Y003680D01*
X014940Y004680D02*
X014420Y004680D01*
X014420Y005680D02*
X014940Y005680D01*
X011940Y005680D02*
X011420Y005680D01*
X011420Y004680D02*
X011940Y004680D01*
X011940Y003680D02*
X011420Y003680D01*
X011420Y002680D02*
X011940Y002680D01*
X008940Y002680D02*
X008420Y002680D01*
X008420Y001680D02*
X008940Y001680D01*
X005940Y001680D02*
X005420Y001680D01*
X005420Y002680D02*
X005940Y002680D01*
X005940Y003680D02*
X005420Y003680D01*
X005420Y004680D02*
X005940Y004680D01*
X005940Y005680D02*
X005420Y005680D01*
X005420Y006680D02*
X005940Y006680D01*
X005940Y007680D02*
X005420Y007680D01*
X005420Y008680D02*
X005940Y008680D01*
X008420Y008680D02*
X008940Y008680D01*
X008940Y007680D02*
X008420Y007680D01*
X008420Y006680D02*
X008940Y006680D01*
X008940Y005680D02*
X008420Y005680D01*
X008420Y004680D02*
X008940Y004680D01*
X008940Y003680D02*
X008420Y003680D01*
D13*
X010430Y002680D03*
X010430Y001680D03*
X004180Y003680D03*
X004180Y004680D03*
X003680Y005680D03*
X003680Y006680D03*
D14*
X003180Y002680D03*
D15*
X003180Y001680D03*
M02*
