%
M48
M72
T01C0.0320
T02C0.0400
%
T01
X3180Y1680
X3180Y2680
X4180Y3680
X5680Y3680
X5680Y2680
X5680Y1680
X8680Y1680
X8680Y2680
X10430Y2680
X11680Y2680
X10430Y1680
X11680Y3680
X11680Y4680
X11680Y5680
X8680Y5680
X8680Y4680
X8680Y3680
X5680Y4680
X4180Y4680
X3680Y5680
X3680Y6680
X5680Y6680
X5680Y5680
X8680Y6680
X8680Y7680
X8680Y8680
X5680Y8680
X5680Y7680
X14680Y5680
X14680Y4680
X14680Y3680
X14680Y2680
T02
X1180Y1680
X1180Y2680
X1180Y4680
X1180Y5680
X16180Y5680
X17180Y5680
X18180Y5680
X18180Y7680
X17180Y7680
X16180Y7680
X16180Y2680
X17180Y2680
X18180Y2680
M30
