G75*
G70*
%OFA0B0*%
%FSLAX24Y24*%
%IPPOS*%
%LPD*%
%AMOC8*
5,1,8,0,0,1.08239X$1,22.5*
%
%ADD10C,0.0000*%
%ADD11C,0.0040*%
%ADD12C,0.0060*%
%ADD13C,0.0080*%
%ADD14C,0.0100*%
%ADD15C,0.0200*%
D10*
X000180Y000180D02*
X000180Y010176D01*
X019550Y010176D01*
X019550Y000180D01*
X000180Y000180D01*
D11*
X012509Y006673D02*
X012542Y006673D01*
X012575Y006707D01*
X012575Y006873D01*
X012475Y006873D01*
X012442Y006840D01*
X012442Y006773D01*
X012475Y006740D01*
X012575Y006740D01*
X012663Y006740D02*
X012663Y006873D01*
X012696Y006873D01*
X012730Y006840D01*
X012763Y006873D01*
X012796Y006840D01*
X012796Y006740D01*
X012730Y006740D02*
X012730Y006840D01*
X012884Y006740D02*
X012951Y006740D01*
X012917Y006740D02*
X012917Y006940D01*
X012884Y006940D01*
X013031Y006840D02*
X013031Y006773D01*
X013065Y006740D01*
X013131Y006740D01*
X013165Y006807D02*
X013031Y006807D01*
X013031Y006840D02*
X013065Y006873D01*
X013131Y006873D01*
X013165Y006840D01*
X013165Y006807D01*
X013252Y006840D02*
X013252Y006773D01*
X013286Y006740D01*
X013386Y006740D01*
X013386Y006707D02*
X013386Y006873D01*
X013286Y006873D01*
X013252Y006840D01*
X013473Y006840D02*
X013473Y006773D01*
X013507Y006740D01*
X013573Y006740D01*
X013607Y006773D01*
X013607Y006840D01*
X013573Y006873D01*
X013507Y006873D01*
X013473Y006840D01*
X013694Y006773D02*
X013694Y006907D01*
X013728Y006940D01*
X013794Y006940D01*
X013828Y006907D01*
X013828Y006840D01*
X013794Y006807D01*
X013794Y006873D01*
X013728Y006873D01*
X013728Y006807D01*
X013794Y006807D01*
X013828Y006773D02*
X013794Y006740D01*
X013728Y006740D01*
X013694Y006773D01*
X013386Y006707D02*
X013352Y006673D01*
X013319Y006673D01*
X013915Y006740D02*
X013982Y006740D01*
X013949Y006740D02*
X013949Y006873D01*
X013915Y006873D01*
X013949Y006940D02*
X013949Y006974D01*
X014063Y006907D02*
X014096Y006940D01*
X014163Y006940D01*
X014196Y006907D01*
X014196Y006873D01*
X014163Y006840D01*
X014196Y006807D01*
X014196Y006773D01*
X014163Y006740D01*
X014096Y006740D01*
X014063Y006773D01*
X014129Y006840D02*
X014163Y006840D01*
X014284Y006840D02*
X014317Y006873D01*
X014417Y006873D01*
X014417Y006940D02*
X014417Y006740D01*
X014317Y006740D01*
X014284Y006773D01*
X014284Y006840D01*
X014505Y006840D02*
X014505Y006773D01*
X014538Y006740D01*
X014605Y006740D01*
X014638Y006807D02*
X014505Y006807D01*
X014505Y006840D02*
X014538Y006873D01*
X014605Y006873D01*
X014638Y006840D01*
X014638Y006807D01*
X014726Y006873D02*
X014792Y006873D01*
X014759Y006907D02*
X014759Y006773D01*
X014792Y006740D01*
X014873Y006740D02*
X014873Y006873D01*
X014873Y006807D02*
X014940Y006873D01*
X014973Y006873D01*
X015057Y006840D02*
X015057Y006773D01*
X015090Y006740D01*
X015157Y006740D01*
X015190Y006773D01*
X015190Y006840D01*
X015157Y006873D01*
X015090Y006873D01*
X015057Y006840D01*
X015278Y006873D02*
X015311Y006873D01*
X015311Y006740D01*
X015278Y006740D02*
X015345Y006740D01*
X015459Y006773D02*
X015492Y006740D01*
X015459Y006773D02*
X015459Y006907D01*
X015492Y006873D02*
X015425Y006873D01*
X015311Y006940D02*
X015311Y006974D01*
X015683Y006840D02*
X015683Y006773D01*
X015716Y006740D01*
X015783Y006740D01*
X015817Y006773D01*
X015817Y006840D01*
X015783Y006873D01*
X015716Y006873D01*
X015683Y006840D01*
X015606Y006773D02*
X015606Y006740D01*
X015573Y006740D01*
X015573Y006773D01*
X015606Y006773D01*
X015904Y006740D02*
X015904Y006873D01*
X015904Y006807D02*
X015971Y006873D01*
X016004Y006873D01*
X016088Y006840D02*
X016088Y006773D01*
X016122Y006740D01*
X016222Y006740D01*
X016222Y006707D02*
X016222Y006873D01*
X016122Y006873D01*
X016088Y006840D01*
X016309Y006740D02*
X016443Y006840D01*
X016309Y006940D01*
X016222Y006707D02*
X016188Y006673D01*
X016155Y006673D01*
X015047Y007233D02*
X015013Y007233D01*
X014947Y007167D01*
X014947Y007233D02*
X014947Y007100D01*
X014859Y007167D02*
X014726Y007167D01*
X014726Y007200D02*
X014759Y007233D01*
X014826Y007233D01*
X014859Y007200D01*
X014859Y007167D01*
X014826Y007100D02*
X014759Y007100D01*
X014726Y007133D01*
X014726Y007200D01*
X014638Y007233D02*
X014638Y007067D01*
X014605Y007033D01*
X014571Y007033D01*
X014538Y007100D02*
X014638Y007100D01*
X014538Y007100D02*
X014505Y007133D01*
X014505Y007233D01*
X014417Y007200D02*
X014417Y007167D01*
X014284Y007167D01*
X014284Y007200D02*
X014317Y007233D01*
X014384Y007233D01*
X014417Y007200D01*
X014384Y007100D02*
X014317Y007100D01*
X014284Y007133D01*
X014284Y007200D01*
X014196Y007300D02*
X014196Y007100D01*
X014063Y007100D02*
X014063Y007300D01*
X014129Y007233D01*
X014196Y007300D01*
X014196Y007460D02*
X014096Y007460D01*
X014063Y007493D01*
X014063Y007560D01*
X014096Y007593D01*
X014196Y007593D01*
X014196Y007660D02*
X014196Y007460D01*
X013978Y007593D02*
X013945Y007593D01*
X013878Y007527D01*
X013878Y007593D02*
X013878Y007460D01*
X013791Y007460D02*
X013691Y007460D01*
X013657Y007493D01*
X013691Y007527D01*
X013791Y007527D01*
X013791Y007560D02*
X013791Y007460D01*
X013791Y007560D02*
X013757Y007593D01*
X013691Y007593D01*
X013570Y007560D02*
X013537Y007593D01*
X013470Y007593D01*
X013436Y007560D01*
X013436Y007493D01*
X013470Y007460D01*
X013537Y007460D01*
X013570Y007493D01*
X013570Y007560D01*
X013349Y007527D02*
X013349Y007493D01*
X013316Y007460D01*
X013215Y007460D01*
X013215Y007660D01*
X013316Y007660D01*
X013349Y007627D01*
X013349Y007593D01*
X013316Y007560D01*
X013215Y007560D01*
X013316Y007560D02*
X013349Y007527D01*
X013543Y007300D02*
X013510Y007267D01*
X013510Y007133D01*
X013543Y007100D01*
X013610Y007100D01*
X013644Y007133D01*
X013644Y007200D01*
X013577Y007200D01*
X013644Y007267D02*
X013610Y007300D01*
X013543Y007300D01*
X013731Y007133D02*
X013764Y007133D01*
X013764Y007100D01*
X013731Y007100D01*
X013731Y007133D01*
X013202Y007133D02*
X013202Y007233D01*
X013202Y007133D02*
X013168Y007100D01*
X013135Y007133D01*
X013101Y007100D01*
X013068Y007133D01*
X013068Y007233D01*
X012981Y007200D02*
X012981Y007167D01*
X012847Y007167D01*
X012847Y007200D02*
X012880Y007233D01*
X012947Y007233D01*
X012981Y007200D01*
X012947Y007100D02*
X012880Y007100D01*
X012847Y007133D01*
X012847Y007200D01*
X012763Y007233D02*
X012730Y007233D01*
X012663Y007167D01*
X012663Y007233D02*
X012663Y007100D01*
X012575Y007100D02*
X012475Y007100D01*
X012442Y007133D01*
X012442Y007200D01*
X012475Y007233D01*
X012575Y007233D01*
X012575Y007300D02*
X012575Y007100D01*
X012354Y007100D02*
X012354Y007200D01*
X012321Y007233D01*
X012221Y007233D01*
X012221Y007100D01*
X012133Y007100D02*
X012133Y007233D01*
X012067Y007300D01*
X012000Y007233D01*
X012000Y007100D01*
X012000Y007200D02*
X012133Y007200D01*
X012133Y006940D02*
X012000Y006840D01*
X012133Y006740D01*
X012221Y006773D02*
X012254Y006807D01*
X012354Y006807D01*
X012354Y006840D02*
X012354Y006740D01*
X012254Y006740D01*
X012221Y006773D01*
X012254Y006873D02*
X012321Y006873D01*
X012354Y006840D01*
X012321Y007460D02*
X012254Y007460D01*
X012221Y007493D01*
X012221Y007560D01*
X012254Y007593D01*
X012321Y007593D01*
X012354Y007560D01*
X012354Y007493D01*
X012321Y007460D01*
X012475Y007493D02*
X012509Y007460D01*
X012475Y007493D02*
X012475Y007627D01*
X012442Y007593D02*
X012509Y007593D01*
X012589Y007560D02*
X012589Y007493D01*
X012623Y007460D01*
X012689Y007460D01*
X012723Y007493D01*
X012723Y007560D01*
X012689Y007593D01*
X012623Y007593D01*
X012589Y007560D01*
X012810Y007527D02*
X012877Y007593D01*
X012910Y007593D01*
X012810Y007593D02*
X012810Y007460D01*
X012800Y007753D02*
X012767Y007753D01*
X012800Y007753D02*
X012833Y007787D01*
X012833Y007953D01*
X012833Y007820D02*
X012733Y007820D01*
X012700Y007853D01*
X012700Y007953D01*
X012619Y007953D02*
X012552Y007953D01*
X012586Y007987D02*
X012586Y007853D01*
X012619Y007820D01*
X012468Y007953D02*
X012435Y007953D01*
X012368Y007887D01*
X012368Y007953D02*
X012368Y007820D01*
X012288Y007820D02*
X012221Y007820D01*
X012254Y007820D02*
X012254Y007953D01*
X012221Y007953D01*
X012254Y008020D02*
X012254Y008054D01*
X012133Y007987D02*
X012100Y008020D01*
X012000Y008020D01*
X012000Y007820D01*
X012100Y007820D01*
X012133Y007853D01*
X012133Y007987D01*
X012133Y007660D02*
X012067Y007593D01*
X012000Y007660D01*
X012000Y007460D01*
X012133Y007460D02*
X012133Y007660D01*
X013142Y007820D02*
X013275Y007820D01*
X013363Y007820D02*
X013429Y007820D01*
X013396Y007820D02*
X013396Y007953D01*
X013363Y007953D01*
X013396Y008020D02*
X013396Y008054D01*
X013510Y007953D02*
X013577Y007953D01*
X013543Y007987D02*
X013543Y007853D01*
X013577Y007820D01*
X013691Y007853D02*
X013724Y007820D01*
X013691Y007853D02*
X013691Y007987D01*
X013724Y007953D02*
X013657Y007953D01*
X013805Y008020D02*
X013838Y008020D01*
X013838Y007820D01*
X013805Y007820D02*
X013871Y007820D01*
X013952Y007853D02*
X013952Y007920D01*
X013985Y007953D01*
X014052Y007953D01*
X014086Y007920D01*
X014086Y007887D01*
X013952Y007887D01*
X013952Y007853D02*
X013985Y007820D01*
X014052Y007820D01*
X014505Y007593D02*
X014571Y007460D01*
X014638Y007593D01*
X014726Y007593D02*
X014792Y007660D01*
X014792Y007460D01*
X014726Y007460D02*
X014859Y007460D01*
X014947Y007460D02*
X014980Y007460D01*
X014980Y007493D01*
X014947Y007493D01*
X014947Y007460D01*
X015057Y007493D02*
X015190Y007627D01*
X015190Y007493D01*
X015157Y007460D01*
X015090Y007460D01*
X015057Y007493D01*
X015057Y007627D01*
X015090Y007660D01*
X015157Y007660D01*
X015190Y007627D01*
X013142Y007820D02*
X013142Y008020D01*
D12*
X011650Y007440D02*
X011650Y007240D01*
X011430Y007200D01*
X011374Y007200D02*
X011070Y007200D01*
X011026Y007142D02*
X011362Y007142D01*
X011351Y007083D02*
X010982Y007083D01*
X010980Y007080D02*
X011130Y007280D01*
X011080Y007530D01*
X010880Y007630D01*
X010680Y007630D01*
X010530Y007480D01*
X010530Y007180D01*
X010680Y007080D01*
X010530Y006830D01*
X010480Y006830D01*
X010330Y006730D01*
X010230Y006830D01*
X010330Y006980D01*
X010230Y007230D01*
X010030Y007280D01*
X010030Y007430D01*
X010230Y007430D01*
X010330Y007680D01*
X010180Y007880D01*
X010330Y007980D01*
X010480Y007830D01*
X010680Y007930D01*
X010730Y008130D01*
X010880Y008130D01*
X010930Y007930D01*
X011130Y007830D01*
X011330Y007980D01*
X011430Y007880D01*
X011330Y007680D01*
X011430Y007430D01*
X011630Y007430D01*
X011630Y007280D01*
X011380Y007230D01*
X011330Y006980D01*
X011430Y006830D01*
X011330Y006730D01*
X011180Y006830D01*
X011080Y006780D01*
X010980Y007080D01*
X010940Y007100D02*
X011080Y006760D01*
X011160Y006800D01*
X011340Y006680D01*
X011480Y006820D01*
X011350Y007000D01*
X011339Y007025D02*
X010998Y007025D01*
X011018Y006966D02*
X011339Y006966D01*
X011378Y006908D02*
X011037Y006908D01*
X011057Y006849D02*
X011417Y006849D01*
X011391Y006791D02*
X011239Y006791D01*
X011327Y006732D02*
X011332Y006732D01*
X011101Y006791D02*
X011076Y006791D01*
X010700Y007100D02*
X010550Y006760D01*
X010480Y006800D01*
X010300Y006680D01*
X010160Y006820D01*
X010280Y007000D01*
X010312Y007025D02*
X010647Y007025D01*
X010675Y007083D02*
X010289Y007083D01*
X010265Y007142D02*
X010588Y007142D01*
X010530Y007200D02*
X010242Y007200D01*
X010200Y007200D02*
X009980Y007240D01*
X009980Y007440D01*
X010210Y007480D01*
X010255Y007493D02*
X010543Y007493D01*
X010530Y007434D02*
X010232Y007434D01*
X010278Y007551D02*
X010601Y007551D01*
X010660Y007610D02*
X010302Y007610D01*
X010290Y007670D02*
X010160Y007860D01*
X010300Y008000D01*
X010490Y007870D01*
X010507Y007844D02*
X011103Y007844D01*
X011148Y007844D02*
X011412Y007844D01*
X011408Y007902D02*
X011226Y007902D01*
X011140Y007870D02*
X011340Y008000D01*
X011480Y007860D01*
X011340Y007670D01*
X011335Y007668D02*
X010325Y007668D01*
X010295Y007727D02*
X011353Y007727D01*
X011383Y007785D02*
X010251Y007785D01*
X010207Y007844D02*
X010466Y007844D01*
X010408Y007902D02*
X010213Y007902D01*
X010301Y007961D02*
X010349Y007961D01*
X010624Y007902D02*
X010986Y007902D01*
X010960Y007940D02*
X010910Y008180D01*
X010720Y008180D01*
X010670Y007940D01*
X010688Y007961D02*
X010922Y007961D01*
X010908Y008019D02*
X010702Y008019D01*
X010717Y008078D02*
X010893Y008078D01*
X011304Y007961D02*
X011349Y007961D01*
X011358Y007610D02*
X010921Y007610D01*
X011038Y007551D02*
X011382Y007551D01*
X011405Y007493D02*
X011087Y007493D01*
X011099Y007434D02*
X011428Y007434D01*
X011430Y007480D02*
X011650Y007440D01*
X011630Y007376D02*
X011111Y007376D01*
X011123Y007317D02*
X011630Y007317D01*
X011523Y007259D02*
X011114Y007259D01*
X011432Y007480D02*
X011420Y007520D01*
X011405Y007559D01*
X011387Y007597D01*
X011367Y007633D01*
X011345Y007668D01*
X010940Y007100D02*
X010968Y007116D01*
X010995Y007135D01*
X011018Y007157D01*
X011039Y007182D01*
X011057Y007210D01*
X011072Y007239D01*
X011082Y007270D01*
X011090Y007301D01*
X011093Y007334D01*
X011092Y007366D01*
X011088Y007399D01*
X011079Y007430D01*
X011067Y007460D01*
X011052Y007489D01*
X011033Y007516D01*
X011011Y007540D01*
X010987Y007561D01*
X010960Y007580D01*
X010931Y007595D01*
X010900Y007606D01*
X010869Y007614D01*
X010836Y007618D01*
X010804Y007618D01*
X010771Y007614D01*
X010740Y007606D01*
X010709Y007595D01*
X010680Y007580D01*
X010653Y007561D01*
X010629Y007540D01*
X010607Y007516D01*
X010588Y007489D01*
X010573Y007460D01*
X010561Y007430D01*
X010552Y007399D01*
X010548Y007366D01*
X010547Y007334D01*
X010550Y007301D01*
X010558Y007270D01*
X010568Y007239D01*
X010583Y007210D01*
X010601Y007182D01*
X010622Y007157D01*
X010645Y007135D01*
X010672Y007116D01*
X010700Y007100D01*
X010612Y006966D02*
X010321Y006966D01*
X010282Y006908D02*
X010577Y006908D01*
X010541Y006849D02*
X010243Y006849D01*
X010269Y006791D02*
X010421Y006791D01*
X010333Y006732D02*
X010328Y006732D01*
X010530Y007259D02*
X010116Y007259D01*
X010030Y007317D02*
X010530Y007317D01*
X010530Y007376D02*
X010030Y007376D01*
X010202Y007184D02*
X010217Y007137D01*
X010235Y007091D01*
X010257Y007047D01*
X010282Y007005D01*
X010492Y007866D02*
X010534Y007889D01*
X010577Y007908D01*
X010622Y007925D01*
X010668Y007937D01*
X010960Y007941D02*
X011006Y007929D01*
X011052Y007913D01*
X011096Y007893D01*
X011139Y007870D01*
X011429Y007201D02*
X011419Y007159D01*
X011406Y007118D01*
X011390Y007078D01*
X011371Y007039D01*
X011349Y007002D01*
X010208Y007482D02*
X010219Y007522D01*
X010233Y007561D01*
X010249Y007598D01*
X010268Y007635D01*
X010289Y007670D01*
X008330Y009180D02*
X007580Y009180D01*
X007578Y009141D01*
X007572Y009102D01*
X007563Y009064D01*
X007550Y009027D01*
X007533Y008991D01*
X007513Y008958D01*
X007489Y008926D01*
X007463Y008897D01*
X007434Y008871D01*
X007402Y008847D01*
X007369Y008827D01*
X007333Y008810D01*
X007296Y008797D01*
X007258Y008788D01*
X007219Y008782D01*
X007180Y008780D01*
X007141Y008782D01*
X007102Y008788D01*
X007064Y008797D01*
X007027Y008810D01*
X006991Y008827D01*
X006958Y008847D01*
X006926Y008871D01*
X006897Y008897D01*
X006871Y008926D01*
X006847Y008958D01*
X006827Y008991D01*
X006810Y009027D01*
X006797Y009064D01*
X006788Y009102D01*
X006782Y009141D01*
X006780Y009180D01*
X006030Y009180D01*
X006030Y001180D01*
X008330Y001180D01*
X008330Y009180D01*
X012080Y006180D02*
X012080Y002180D01*
X012930Y002180D01*
X012932Y002210D01*
X012937Y002240D01*
X012946Y002269D01*
X012959Y002296D01*
X012974Y002322D01*
X012993Y002346D01*
X013014Y002367D01*
X013038Y002386D01*
X013064Y002401D01*
X013091Y002414D01*
X013120Y002423D01*
X013150Y002428D01*
X013180Y002430D01*
X013210Y002428D01*
X013240Y002423D01*
X013269Y002414D01*
X013296Y002401D01*
X013322Y002386D01*
X013346Y002367D01*
X013367Y002346D01*
X013386Y002322D01*
X013401Y002296D01*
X013414Y002269D01*
X013423Y002240D01*
X013428Y002210D01*
X013430Y002180D01*
X014280Y002180D01*
X014280Y006180D01*
X012080Y006180D01*
X015680Y005930D02*
X015680Y005430D01*
X015930Y005180D01*
X016430Y005180D01*
X016680Y005430D01*
X016930Y005180D01*
X017430Y005180D01*
X017680Y005430D01*
X017930Y005180D01*
X018430Y005180D01*
X018680Y005430D01*
X018680Y005930D01*
X018430Y006180D01*
X017930Y006180D01*
X017680Y005930D01*
X017680Y005430D01*
X017680Y005930D02*
X017430Y006180D01*
X016930Y006180D01*
X016680Y005930D01*
X016680Y005430D01*
X016680Y005930D02*
X016430Y006180D01*
X015930Y006180D01*
X015680Y005930D01*
X015930Y007180D02*
X016430Y007180D01*
X016680Y007430D01*
X016930Y007180D01*
X017430Y007180D01*
X017680Y007430D01*
X017930Y007180D01*
X018430Y007180D01*
X018680Y007430D01*
X018680Y007930D01*
X018430Y008180D01*
X017930Y008180D01*
X017680Y007930D01*
X017680Y007430D01*
X017680Y007930D02*
X017430Y008180D01*
X016930Y008180D01*
X016680Y007930D01*
X016680Y007430D01*
X015930Y007180D02*
X015680Y007430D01*
X015680Y007930D01*
X015930Y008180D01*
X016430Y008180D01*
X016680Y007930D01*
X016430Y003180D02*
X015930Y003180D01*
X015680Y002930D01*
X015680Y002430D01*
X015930Y002180D01*
X016430Y002180D01*
X016680Y002430D01*
X016930Y002180D01*
X017430Y002180D01*
X017680Y002430D01*
X017930Y002180D01*
X018430Y002180D01*
X018680Y002430D01*
X018680Y002930D01*
X018430Y003180D01*
X017930Y003180D01*
X017680Y002930D01*
X017680Y002430D01*
X017680Y002930D02*
X017430Y003180D01*
X016930Y003180D01*
X016680Y002930D01*
X016680Y002430D01*
X016680Y002930D02*
X016430Y003180D01*
X010930Y003030D02*
X010930Y001330D01*
X010928Y001313D01*
X010924Y001296D01*
X010917Y001280D01*
X010907Y001266D01*
X010894Y001253D01*
X010880Y001243D01*
X010864Y001236D01*
X010847Y001232D01*
X010830Y001230D01*
X010030Y001230D01*
X010013Y001232D01*
X009996Y001236D01*
X009980Y001243D01*
X009966Y001253D01*
X009953Y001266D01*
X009943Y001280D01*
X009936Y001296D01*
X009932Y001313D01*
X009930Y001330D01*
X009930Y003030D01*
X009932Y003047D01*
X009936Y003064D01*
X009943Y003080D01*
X009953Y003094D01*
X009966Y003107D01*
X009980Y003117D01*
X009996Y003124D01*
X010013Y003128D01*
X010030Y003130D01*
X010830Y003130D01*
X010847Y003128D01*
X010864Y003124D01*
X010880Y003117D01*
X010894Y003107D01*
X010907Y003094D01*
X010917Y003080D01*
X010924Y003064D01*
X010928Y003047D01*
X010930Y003030D01*
X010430Y002330D02*
X010430Y002280D01*
X010430Y002080D02*
X010430Y002030D01*
X003280Y001230D02*
X003080Y001230D01*
X003180Y001330D02*
X003180Y001130D01*
X001680Y001430D02*
X001680Y001930D01*
X001430Y002180D01*
X000930Y002180D01*
X000680Y001930D01*
X000680Y001430D01*
X000930Y001180D01*
X001430Y001180D01*
X001680Y001430D01*
X001430Y002180D02*
X001680Y002430D01*
X001680Y002930D01*
X001430Y003180D01*
X000930Y003180D01*
X000680Y002930D01*
X000680Y002430D01*
X000930Y002180D01*
X002080Y002180D02*
X002082Y002246D01*
X002088Y002311D01*
X002098Y002376D01*
X002111Y002441D01*
X002129Y002504D01*
X002150Y002567D01*
X002175Y002627D01*
X002204Y002687D01*
X002236Y002744D01*
X002271Y002800D01*
X002310Y002853D01*
X002352Y002904D01*
X002396Y002952D01*
X002444Y002997D01*
X002494Y003040D01*
X002547Y003079D01*
X002602Y003116D01*
X002659Y003149D01*
X002718Y003178D01*
X002778Y003204D01*
X002840Y003226D01*
X002903Y003245D01*
X002967Y003259D01*
X003032Y003270D01*
X003098Y003277D01*
X003164Y003280D01*
X003229Y003279D01*
X003295Y003274D01*
X003360Y003265D01*
X003425Y003252D01*
X003488Y003236D01*
X003551Y003216D01*
X003612Y003191D01*
X003672Y003164D01*
X003730Y003133D01*
X003786Y003098D01*
X003840Y003060D01*
X003891Y003019D01*
X003940Y002975D01*
X003986Y002928D01*
X004030Y002879D01*
X004070Y002827D01*
X004107Y002772D01*
X004141Y002716D01*
X004171Y002657D01*
X004198Y002597D01*
X004221Y002536D01*
X004240Y002473D01*
X004256Y002409D01*
X004268Y002344D01*
X004276Y002279D01*
X004280Y002213D01*
X004280Y002147D01*
X004276Y002081D01*
X004268Y002016D01*
X004256Y001951D01*
X004240Y001887D01*
X004221Y001824D01*
X004198Y001763D01*
X004171Y001703D01*
X004141Y001644D01*
X004107Y001588D01*
X004070Y001533D01*
X004030Y001481D01*
X003986Y001432D01*
X003940Y001385D01*
X003891Y001341D01*
X003840Y001300D01*
X003786Y001262D01*
X003730Y001227D01*
X003672Y001196D01*
X003612Y001169D01*
X003551Y001144D01*
X003488Y001124D01*
X003425Y001108D01*
X003360Y001095D01*
X003295Y001086D01*
X003229Y001081D01*
X003164Y001080D01*
X003098Y001083D01*
X003032Y001090D01*
X002967Y001101D01*
X002903Y001115D01*
X002840Y001134D01*
X002778Y001156D01*
X002718Y001182D01*
X002659Y001211D01*
X002602Y001244D01*
X002547Y001281D01*
X002494Y001320D01*
X002444Y001363D01*
X002396Y001408D01*
X002352Y001456D01*
X002310Y001507D01*
X002271Y001560D01*
X002236Y001616D01*
X002204Y001673D01*
X002175Y001733D01*
X002150Y001793D01*
X002129Y001856D01*
X002111Y001919D01*
X002098Y001984D01*
X002088Y002049D01*
X002082Y002114D01*
X002080Y002180D01*
X001430Y004180D02*
X000930Y004180D01*
X000680Y004430D01*
X000680Y004930D01*
X000930Y005180D01*
X000680Y005430D01*
X000680Y005930D01*
X000930Y006180D01*
X001430Y006180D01*
X001680Y005930D01*
X001680Y005430D01*
X001430Y005180D01*
X001680Y004930D01*
X001680Y004430D01*
X001430Y004180D01*
X001430Y005180D02*
X000930Y005180D01*
X002680Y006180D02*
X002682Y006243D01*
X002688Y006305D01*
X002698Y006367D01*
X002711Y006429D01*
X002729Y006489D01*
X002750Y006548D01*
X002775Y006606D01*
X002804Y006662D01*
X002836Y006716D01*
X002871Y006768D01*
X002909Y006817D01*
X002951Y006865D01*
X002995Y006909D01*
X003043Y006951D01*
X003092Y006989D01*
X003144Y007024D01*
X003198Y007056D01*
X003254Y007085D01*
X003312Y007110D01*
X003371Y007131D01*
X003431Y007149D01*
X003493Y007162D01*
X003555Y007172D01*
X003617Y007178D01*
X003680Y007180D01*
X003743Y007178D01*
X003805Y007172D01*
X003867Y007162D01*
X003929Y007149D01*
X003989Y007131D01*
X004048Y007110D01*
X004106Y007085D01*
X004162Y007056D01*
X004216Y007024D01*
X004268Y006989D01*
X004317Y006951D01*
X004365Y006909D01*
X004409Y006865D01*
X004451Y006817D01*
X004489Y006768D01*
X004524Y006716D01*
X004556Y006662D01*
X004585Y006606D01*
X004610Y006548D01*
X004631Y006489D01*
X004649Y006429D01*
X004662Y006367D01*
X004672Y006305D01*
X004678Y006243D01*
X004680Y006180D01*
X004678Y006117D01*
X004672Y006055D01*
X004662Y005993D01*
X004649Y005931D01*
X004631Y005871D01*
X004610Y005812D01*
X004585Y005754D01*
X004556Y005698D01*
X004524Y005644D01*
X004489Y005592D01*
X004451Y005543D01*
X004409Y005495D01*
X004365Y005451D01*
X004317Y005409D01*
X004268Y005371D01*
X004216Y005336D01*
X004162Y005304D01*
X004106Y005275D01*
X004048Y005250D01*
X003989Y005229D01*
X003929Y005211D01*
X003867Y005198D01*
X003805Y005188D01*
X003743Y005182D01*
X003680Y005180D01*
X003617Y005182D01*
X003555Y005188D01*
X003493Y005198D01*
X003431Y005211D01*
X003371Y005229D01*
X003312Y005250D01*
X003254Y005275D01*
X003198Y005304D01*
X003144Y005336D01*
X003092Y005371D01*
X003043Y005409D01*
X002995Y005451D01*
X002951Y005495D01*
X002909Y005543D01*
X002871Y005592D01*
X002836Y005644D01*
X002804Y005698D01*
X002775Y005754D01*
X002750Y005812D01*
X002729Y005871D01*
X002711Y005931D01*
X002698Y005993D01*
X002688Y006055D01*
X002682Y006117D01*
X002680Y006180D01*
D13*
X002151Y006450D02*
X002151Y006870D01*
X002291Y006870D02*
X002010Y006870D01*
X001830Y006870D02*
X001830Y006520D01*
X001760Y006450D01*
X001620Y006450D01*
X001550Y006520D01*
X001550Y006870D01*
X001370Y006800D02*
X001300Y006870D01*
X001160Y006870D01*
X001090Y006800D01*
X001090Y006520D01*
X001160Y006450D01*
X001300Y006450D01*
X001370Y006520D01*
X001370Y006800D01*
X000909Y006870D02*
X000909Y006450D01*
X000629Y006450D02*
X000629Y006870D01*
X000769Y006730D01*
X000909Y006870D01*
X002849Y007680D02*
X003129Y007680D01*
X003310Y007680D02*
X003590Y007680D01*
X003770Y007680D02*
X003980Y007680D01*
X004050Y007750D01*
X004050Y008030D01*
X003980Y008100D01*
X003770Y008100D01*
X003770Y007680D01*
X003450Y007890D02*
X003310Y007890D01*
X003310Y008100D02*
X003310Y007680D01*
X002849Y007680D02*
X002849Y008100D01*
X003310Y008100D02*
X003590Y008100D01*
X004230Y007960D02*
X004371Y008100D01*
X004371Y007680D01*
X004511Y007680D02*
X004230Y007680D01*
X006556Y009320D02*
X006696Y009320D01*
X006626Y009320D02*
X006626Y009740D01*
X006556Y009740D02*
X006696Y009740D01*
X006863Y009670D02*
X006863Y009390D01*
X006933Y009320D01*
X007073Y009320D01*
X007143Y009390D01*
X007323Y009390D02*
X007394Y009320D01*
X007534Y009320D01*
X007604Y009390D01*
X007604Y009460D01*
X007534Y009530D01*
X007464Y009530D01*
X007534Y009530D02*
X007604Y009600D01*
X007604Y009670D01*
X007534Y009740D01*
X007394Y009740D01*
X007323Y009670D01*
X007143Y009670D02*
X007073Y009740D01*
X006933Y009740D01*
X006863Y009670D01*
X004430Y005180D02*
X002930Y005180D01*
X003650Y004540D02*
X003650Y004260D01*
X003650Y004400D02*
X003230Y004400D01*
X003370Y004260D01*
X003300Y004080D02*
X003440Y004080D01*
X003510Y004010D01*
X003510Y003800D01*
X003650Y003800D02*
X003230Y003800D01*
X003230Y004010D01*
X003300Y004080D01*
X003510Y003940D02*
X003650Y004080D01*
X004890Y002550D02*
X004890Y002270D01*
X004820Y002090D02*
X004890Y002020D01*
X004890Y001880D01*
X004820Y001810D01*
X004540Y001810D01*
X004470Y001880D01*
X004470Y002020D01*
X004540Y002090D01*
X004610Y002270D02*
X004470Y002410D01*
X004890Y002410D01*
X001724Y001010D02*
X001724Y000590D01*
X001443Y001010D01*
X001443Y000590D01*
X001277Y000590D02*
X001137Y000590D01*
X001207Y000590D02*
X001207Y001010D01*
X001137Y001010D02*
X001277Y001010D01*
X000956Y001010D02*
X000956Y000730D01*
X000816Y000590D01*
X000676Y000730D01*
X000676Y001010D01*
X010060Y003390D02*
X010130Y003320D01*
X010270Y003320D01*
X010340Y003390D01*
X010520Y003320D02*
X010800Y003600D01*
X010800Y003670D01*
X010730Y003740D01*
X010590Y003740D01*
X010520Y003670D01*
X010340Y003670D02*
X010270Y003740D01*
X010130Y003740D01*
X010060Y003670D01*
X010060Y003390D01*
X010520Y003320D02*
X010800Y003320D01*
X012606Y001980D02*
X012746Y001980D01*
X012676Y001980D02*
X012676Y001560D01*
X012606Y001560D02*
X012746Y001560D01*
X012913Y001630D02*
X012983Y001560D01*
X013123Y001560D01*
X013193Y001630D01*
X013373Y001560D02*
X013654Y001560D01*
X013514Y001560D02*
X013514Y001980D01*
X013373Y001840D01*
X013193Y001910D02*
X013123Y001980D01*
X012983Y001980D01*
X012913Y001910D01*
X012913Y001630D01*
X016576Y003590D02*
X016786Y003590D01*
X016856Y003660D01*
X016856Y003940D01*
X016786Y004010D01*
X016576Y004010D01*
X016576Y003590D01*
X017037Y003590D02*
X017177Y003590D01*
X017107Y003590D02*
X017107Y004010D01*
X017037Y004010D02*
X017177Y004010D01*
X017343Y003870D02*
X017484Y004010D01*
X017484Y003590D01*
X017624Y003590D02*
X017343Y003590D01*
X017414Y004390D02*
X017343Y004460D01*
X017624Y004740D01*
X017624Y004460D01*
X017554Y004390D01*
X017414Y004390D01*
X017343Y004460D02*
X017343Y004740D01*
X017414Y004810D01*
X017554Y004810D01*
X017624Y004740D01*
X017177Y004810D02*
X017037Y004810D01*
X017107Y004810D02*
X017107Y004390D01*
X017037Y004390D02*
X017177Y004390D01*
X016856Y004460D02*
X016786Y004390D01*
X016576Y004390D01*
X016576Y004810D01*
X016786Y004810D01*
X016856Y004740D01*
X016856Y004460D01*
X016830Y008590D02*
X016830Y008870D01*
X016970Y009010D01*
X017110Y008870D01*
X017110Y008590D01*
X017290Y008590D02*
X017570Y008590D01*
X017430Y008590D02*
X017430Y009010D01*
X017290Y008870D01*
X017110Y008800D02*
X016830Y008800D01*
D14*
X010730Y002280D02*
X010430Y002280D01*
X010130Y002280D01*
X010130Y002080D02*
X010430Y002080D01*
X010730Y002080D01*
X004430Y005180D02*
X004484Y005223D01*
X004536Y005269D01*
X004585Y005318D01*
X004632Y005370D01*
X004675Y005424D01*
X004716Y005480D01*
X004753Y005539D01*
X004787Y005599D01*
X004817Y005662D01*
X004844Y005725D01*
X004868Y005791D01*
X004888Y005857D01*
X004904Y005925D01*
X004916Y005993D01*
X004924Y006062D01*
X004929Y006131D01*
X004930Y006201D01*
X004927Y006270D01*
X004920Y006339D01*
X004909Y006407D01*
X004895Y006475D01*
X004876Y006542D01*
X004854Y006608D01*
X004829Y006673D01*
X004800Y006736D01*
X004767Y006797D01*
X004731Y006856D01*
X004692Y006913D01*
X004650Y006969D01*
X004605Y007021D01*
X004557Y007071D01*
X004506Y007118D01*
X004452Y007163D01*
X004397Y007204D01*
X004339Y007242D01*
X004279Y007277D01*
X004217Y007309D01*
X004154Y007337D01*
X004089Y007361D01*
X004023Y007382D01*
X003955Y007399D01*
X003887Y007413D01*
X003818Y007422D01*
X003749Y007428D01*
X003680Y007430D01*
X003611Y007428D01*
X003542Y007422D01*
X003473Y007413D01*
X003405Y007399D01*
X003337Y007382D01*
X003271Y007361D01*
X003206Y007337D01*
X003143Y007309D01*
X003081Y007277D01*
X003021Y007242D01*
X002963Y007204D01*
X002908Y007163D01*
X002854Y007118D01*
X002803Y007071D01*
X002755Y007021D01*
X002710Y006969D01*
X002668Y006913D01*
X002629Y006856D01*
X002593Y006797D01*
X002560Y006736D01*
X002531Y006673D01*
X002506Y006608D01*
X002484Y006542D01*
X002465Y006475D01*
X002451Y006407D01*
X002440Y006339D01*
X002433Y006270D01*
X002430Y006201D01*
X002431Y006131D01*
X002436Y006062D01*
X002444Y005993D01*
X002456Y005925D01*
X002472Y005857D01*
X002492Y005791D01*
X002516Y005725D01*
X002543Y005662D01*
X002573Y005599D01*
X002607Y005539D01*
X002644Y005480D01*
X002685Y005424D01*
X002728Y005370D01*
X002775Y005318D01*
X002824Y005269D01*
X002876Y005223D01*
X002930Y005180D01*
D15*
X004180Y004230D02*
X004180Y004130D01*
M02*
